<svg width="32" height="32" viewBox="0 0 32 32" fill="none" xmlns="http://www.w3.org/2000/svg">
<path d="M3.55355 30.9393C3.35829 31.1346 3.04171 31.1346 2.84645 30.9393L1.06066 29.1536C0.865398 28.9583 0.865398 28.6417 1.06066 28.4464L12.4464 17.0607C13.0322 16.4749 13.0322 15.5251 12.4464 14.9393L1.06066 3.55355C0.865398 3.35829 0.865398 3.04171 1.06066 2.84645L2.84645 1.06066C3.04171 0.865398 3.35829 0.865398 3.55355 1.06066L14.9393 12.4464C15.5251 13.0322 16.4749 13.0322 17.0607 12.4464L28.4464 1.06066C28.6417 0.865398 28.9583 0.865398 29.1536 1.06066L30.9393 2.84645C31.1346 3.04171 31.1346 3.35829 30.9393 3.55355L19.5536 14.9393C18.9678 15.5251 18.9678 16.4749 19.5536 17.0607L30.9393 28.4464C31.1346 28.6417 31.1346 28.9583 30.9393 29.1536L29.1536 30.9393C28.9583 31.1346 28.6417 31.1346 28.4464 30.9393L17.0607 19.5536C16.4749 18.9678 15.5251 18.9678 14.9393 19.5536L3.55355 30.9393Z" fill="#FF4300" stroke="#FF4300"/>
</svg>
